<svg width="463" height="952" viewBox="0 0 463 952" fill="none" xmlns="http://www.w3.org/2000/svg">
<path d="M409.4 0.330383C402.275 0.648738 395.239 1.12627 393.636 1.36504C387.491 2.16093 379.742 5.34448 375.556 8.7668C371.459 12.0299 370.747 12.3483 365.492 12.5871C357.209 12.985 345.988 15.691 335.924 19.6705C323.633 24.5254 317.488 27.7089 314.459 30.7333C312.589 32.5639 309.205 35.3495 306.978 36.9412L302.881 39.8064L297.627 36.3841C293.797 33.9965 291.036 32.8026 287.919 32.4843C285.336 32.0863 282.13 30.9721 279.903 29.5395C277.409 27.9477 274.47 26.9926 270.73 26.5151C267.791 26.1968 264.228 25.2417 262.892 24.4458C260.755 23.1724 259.152 23.0928 244.367 23.8091L228.158 24.605L219.341 28.4252C211.503 31.768 209.633 33.0414 202.241 39.886C197.609 44.1042 193.869 47.7653 193.869 48.1633C193.869 48.4816 191.82 50.7897 189.238 53.1774C186.655 55.6446 183.983 58.4302 183.27 59.4649C182.469 60.4995 181.044 62.3301 180.153 63.6035C179.173 64.8769 177.214 67.5034 175.789 69.4931L173.206 73.0746L173.563 87.0026C173.919 99.1001 174.275 101.647 176.056 106.263C178.105 111.516 178.105 111.596 176.502 114.859C174.364 119.077 173.028 119.634 165.636 119.634C153.523 119.714 147.913 120.828 141.945 124.33C134.998 128.309 130.456 133.721 128.586 139.929C127.784 142.556 126.003 147.729 124.489 151.47C122.352 157.041 121.728 160.463 120.927 170.571C119.858 184.658 117.453 196.676 114.692 201.451C113.623 203.282 112.822 205.272 112.822 205.908C112.822 206.545 111.575 207.898 109.972 208.853C108.458 209.888 104.094 213.151 100.442 216.175C96.7016 219.2 91.7141 222.861 89.2204 224.293C81.3829 228.91 75.1485 235.595 67.8454 247.374C66.1532 250.001 64.1938 253.741 63.4813 255.572C62.7688 257.402 61.3438 259.87 60.2751 261.063C59.2063 262.416 58.2266 265.122 57.9594 267.669C57.6032 270.057 56.8907 273.479 56.2672 275.23C55.4657 277.538 55.2876 283.428 55.5547 297.117C55.911 315.423 56.8016 322.267 59.7407 330.146C60.4532 331.897 61.5219 335.797 62.0563 338.901C62.6797 341.926 63.6594 345.348 64.1938 346.383C64.9063 347.895 64.9063 348.372 63.9266 348.691C63.3032 348.85 61.5219 350.044 60.0079 351.238C58.4047 352.431 56.2672 353.625 55.1985 353.944C54.0407 354.262 51.9922 356.013 50.5672 357.843C49.1422 359.674 46.9157 362.062 45.6688 363.096C44.3329 364.211 42.7297 366.837 42.0172 368.986C41.3047 371.135 40.325 373.363 39.9688 373.841C39.5235 374.318 38.0985 377.741 36.7625 381.402C34.3579 387.928 34.2688 388.406 34.8922 400.503C35.1594 407.348 35.6047 413.874 35.8719 415.147C36.3172 417.057 36.05 417.455 33.6454 418.172C30.8844 419.047 15.7438 434.885 15.7438 436.955C15.7438 437.512 14.675 439.502 13.4282 441.332C10.1329 445.948 8.52973 449.689 7.72817 454.305C7.37192 456.454 5.85786 460.991 4.52192 464.254C1.31567 472.133 0.603171 483.833 2.82973 492.826C4.25473 498.477 4.61098 499.114 9.3313 503.013C12.0922 505.322 15.4766 507.391 16.8125 507.63C18.1485 507.948 19.5735 508.505 19.8407 508.983C20.1079 509.381 21.5329 510.415 22.9579 511.132L25.5407 512.564L22.2454 516.305C20.375 518.454 17.525 521.637 15.8329 523.388C12.6266 526.97 10.1329 531.506 9.06411 535.884C8.70786 537.396 7.28286 540.579 5.85786 542.887C4.52192 545.196 3.18598 548.777 2.82973 550.846C2.56255 552.916 1.67192 556.418 0.959421 558.646C-1.44527 565.411 0.959421 585.547 4.96723 592.471C6.03598 594.222 6.83755 596.292 6.83755 597.087C6.83755 598.679 16.9016 609.822 24.3829 616.666C26.7875 618.815 33.4672 624.784 39.1672 629.798C50.7454 639.827 50.0329 638.394 47.6282 647.388C45.8469 654.073 49.0532 670.389 53.061 674.687C54.0407 675.721 53.8626 676.358 51.9922 678.507C48.9641 682.168 47.9844 685.033 47.361 691.878C47.0047 695.141 46.025 700.155 45.0454 702.941C43.7094 706.92 43.3532 710.263 43.4422 719.654C43.5313 734.06 44.2438 739.074 46.6485 741.382C47.7172 742.417 49.0532 744.804 49.5875 746.794C50.8344 750.774 56.0001 759.21 61.5219 766.055C63.5704 768.522 67.1329 773.616 69.5376 777.356C71.9422 781.176 74.2579 784.44 74.7032 784.678C75.0594 784.917 77.3751 787.146 79.6907 789.613C82.0063 792.08 86.6376 796.458 89.8438 799.243C95.6329 804.098 96.2563 804.416 109.438 808.555C116.919 810.943 124.222 812.853 125.825 812.853C128.408 812.853 128.764 813.171 130.545 817.549C131.525 820.095 132.416 824.075 132.416 826.463C132.416 828.85 133.039 832.511 133.752 834.66C134.464 836.809 135.088 839.435 135.088 840.47C135.088 841.584 136.691 844.848 138.65 847.872C140.609 850.896 142.48 854.557 142.836 855.99C143.103 857.423 145.152 861.8 147.289 865.62C152.366 874.614 161.005 882.811 167.15 884.403C169.377 884.96 172.138 885.915 173.384 886.552C174.631 887.109 178.639 888.94 182.291 890.452C185.942 891.964 190.039 893.795 191.286 894.431C197.075 897.297 206.961 898.809 219.875 898.809C226.911 898.809 235.194 898.411 238.4 897.933C241.606 897.535 246.683 896.819 249.711 896.501C252.739 896.103 257.103 895.227 259.508 894.591C265.564 892.919 278.478 892.123 278.478 893.556C278.478 894.113 281.773 897.376 285.87 900.798C303.772 916 305.108 917.273 305.642 919.502C306.266 922.208 311.699 926.824 319.091 931.042C326.038 935.022 343.405 942.344 350.174 944.174C353.113 944.97 358.189 946.721 361.484 948.154C369.411 951.497 379.92 952.452 400.939 951.815L416.97 951.337L424.274 948.233C431.577 945.05 432.824 944.254 437.277 939.479C439.325 937.33 439.949 937.011 441.017 937.807C442.977 939.24 446.806 938.285 456.069 934.146C464.886 930.167 476.019 921.412 478.067 916.796C478.691 915.443 479.67 913.771 480.294 913.135C480.917 912.498 482.52 909.314 483.767 906.051C486.083 900.48 486.172 899.764 485.638 888.542C484.747 868.247 483.678 862.516 480.205 860.845C479.225 860.288 479.136 858.855 479.67 852.647C480.828 840.948 484.925 820.732 486.884 817.549C487.864 815.957 488.666 813.808 488.666 812.773C488.755 811.739 489.378 809.43 490.091 807.68C490.803 805.929 491.872 801.949 492.406 798.925C493.742 791.762 493.297 771.307 491.783 767.567C491.159 765.975 487.597 759.847 483.856 753.957C480.116 748.067 477.088 742.655 477.088 742.019C477.088 741.382 478.424 738.278 480.116 735.254C484.569 727.295 489.556 715.993 490.803 711.377C491.427 708.751 491.694 697.927 491.605 678.746L491.427 650.094L488.309 641.816C486.528 637.2 485.103 632.345 485.103 631.072C485.103 627.57 482.164 618.895 479.492 614.677C478.245 612.687 476.999 609.662 476.642 607.912C476.286 606.24 475.484 603.773 474.683 602.499C473.436 600.271 473.525 600.032 475.93 597.645C479.759 593.983 483.055 589.288 484.747 585.229C485.816 582.443 486.083 579.976 485.638 573.927C484.925 563.581 483.322 558.487 477.978 549.175C475.574 544.877 473.525 540.898 473.525 540.341C473.525 539.704 471.388 537.237 468.805 534.69L463.995 530.153L468.716 525.935C471.299 523.547 474.594 519.409 476.108 516.782C477.622 514.076 479.759 510.813 480.917 509.46L482.877 507.072L482.699 459.478L482.52 411.805L479.403 401.06C477.711 395.091 474.683 387.212 472.724 383.551C470.853 379.81 468.983 375.592 468.627 374.159C468.27 372.727 466.845 369.543 465.509 367.155C464.084 364.688 462.57 361.266 462.036 359.515C461.502 357.764 459.453 353.944 457.494 351.078C453.575 345.189 453.397 344.87 455.089 344.87C456.336 344.87 462.214 339.538 468.359 332.932C474.861 325.769 478.602 318.845 482.164 307.464C483.233 303.723 483.411 298.868 482.877 275.628C482.342 248.25 482.253 248.17 479.581 239.813C477.355 232.809 473.525 217.051 473.525 214.902C473.525 214.584 475.217 213.628 477.355 212.833C483.233 210.604 483.589 209.729 483.144 201.77C482.52 192.06 480.205 187.603 472.991 182.111C468.181 178.45 467.558 177.734 469.072 177.336C470.052 177.097 472.545 174.948 474.594 172.561C476.731 170.173 481.095 165.318 484.48 161.737C492.139 153.459 493.475 149.719 492.584 139.452C492.05 132.766 491.605 131.572 487.152 123.693C484.391 119.077 481.095 113.824 479.67 112.153C478.245 110.402 477.088 108.651 477.088 108.253C477.088 107.298 470.942 98.1451 468.805 95.9962C467.024 94.2452 467.113 94.1656 469.072 89.6291C470.23 87.0822 471.655 84.2966 472.278 83.4211C475.574 78.7254 477.088 71.8807 476.999 62.5689C476.909 46.0144 475.752 34.7923 473.881 32.3251C472.991 31.1313 471.744 28.9824 471.209 27.6294C469.517 23.252 465.509 19.5113 457.227 14.4972C452.863 11.8708 448.32 9.40351 447.252 9.00557C446.183 8.68721 443.422 7.25461 441.017 5.9016C438.613 4.54859 435.941 3.43435 435.139 3.43435C434.249 3.43435 432.2 2.79764 430.597 1.92216C426.5 -0.14715 424.095 -0.306328 409.4 0.330383ZM421.424 8.92598C427.034 9.96063 437.277 13.7013 445.649 17.8399C450.369 20.148 452.952 22.0581 454.644 24.3662C455.891 26.1968 457.85 28.664 458.919 29.8578C461.056 32.2455 464.263 41.9553 466.044 51.9835C467.469 59.4649 466.845 65.1157 463.55 75.4622C462.57 78.4866 461.502 82.2273 461.056 83.6599C460.611 85.1721 460.166 86.4455 459.988 86.6047C459.809 86.7639 456.514 84.5354 452.595 81.6702C448.677 78.805 441.641 74.1092 437.009 71.244C432.378 68.3788 425.966 64.3198 422.849 62.1709C415.367 57.1568 414.031 58.1119 415.545 67.2646C415.813 68.7768 420.711 72.9154 424.006 74.348C427.302 75.8602 429.528 77.1336 440.928 83.7395C446.539 87.0822 456.959 96.1553 460.344 100.692C462.036 103 465.688 107.934 468.359 111.675C476.642 122.818 478.78 126.558 480.294 132.368C481.541 137.303 481.541 138.337 480.294 142.635C478.513 148.923 475.663 153.698 469.606 160.941C466.845 164.204 464.619 167.149 464.619 167.467C464.619 167.785 462.303 168.74 459.453 169.616C454.466 171.128 454.199 171.128 451.17 169.775C443.867 166.353 431.042 161.02 430.152 161.02C429.617 161.02 425.342 159.906 420.533 158.633C407.084 154.892 392.211 155.369 369.322 160.065C363.177 161.339 356.586 163.09 354.627 163.965C352.667 164.841 348.659 166.034 345.72 166.591C337.794 168.024 331.025 171.606 331.025 174.312C331.025 176.858 348.927 174.789 357.566 171.287C366.65 167.626 384.017 164.124 395.595 163.647C410.202 163.09 421.513 165.875 446.806 176.301C456.158 180.201 464.352 185.852 466.311 189.752C468.003 193.015 467.647 195.721 464.708 202.008C462.214 207.341 463.639 230.342 466.667 233.287C467.469 234.003 468.27 235.675 468.627 237.028C468.983 238.301 469.963 241.564 470.942 244.191C474.327 253.821 475.752 288.601 473.169 300.46C470.586 312.637 463.194 324.814 454.555 331.34C451.705 333.569 448.944 335.32 448.588 335.32C448.231 335.32 447.252 334.444 446.45 333.33C445.649 332.216 442.888 330.146 440.305 328.634C429.795 322.506 428.549 324.337 435.674 335.161C438.524 339.379 442.531 345.189 444.669 348.054C446.717 350.919 448.855 354.103 449.3 355.217C449.834 356.331 451.794 360.231 453.753 363.972C455.713 367.712 457.672 371.851 458.028 373.124C459.008 376.865 463.016 385.699 464.708 387.848C467.202 391.112 471.655 405.915 472.724 414.511C473.703 422.231 475.039 466.721 474.861 484.549C474.772 492.189 474.416 494.259 471.922 500.705C466.845 513.917 457.138 524.264 441.017 533.735C432.2 538.908 423.383 542.649 407.174 547.902C389.628 553.632 378.852 560.158 381.88 563.421C383.661 565.332 387.491 564.695 395.684 560.954C400.049 558.964 404.769 557.373 406.105 557.373C407.441 557.373 410.469 556.497 412.784 555.462C415.1 554.428 419.197 553.154 421.869 552.597C424.541 552.12 428.994 550.448 431.666 549.016C434.338 547.583 440.216 544.718 444.58 542.649C449.033 540.579 453.13 538.51 453.753 538.033C455.534 536.759 463.639 544.957 468.003 552.359C472.189 559.522 474.861 568.833 474.059 573.131C473.258 577.27 468.716 590.004 468.092 590.004C467.736 590.004 465.866 587.616 463.817 584.751C459.453 578.543 454.466 575.996 448.588 576.872C441.73 577.907 440.839 580.533 446.183 583.557C447.786 584.433 450.102 586.104 451.349 587.378C454.733 590.561 461.324 599.475 462.838 602.738C463.461 604.25 465.955 608.946 468.27 613.164C470.853 617.86 473.08 623.193 473.881 627.092C474.683 630.515 476.731 637.439 478.513 642.374C481.808 651.924 482.877 660.759 483.411 682.725C483.856 700.314 481.452 710.104 471.12 732.309C467.914 739.154 464.797 746.555 464.174 748.784C463.55 750.933 461.413 756.424 459.364 760.802C457.316 765.259 455.713 769.397 455.713 770.114C455.713 770.75 456.514 772.103 457.405 773.138C459.008 774.969 459.186 774.969 462.125 773.695C465.064 772.501 468.27 767.965 471.299 760.961L472.189 758.892L474.861 761.04C482.075 766.85 484.391 773.456 483.5 785.156L483.144 790.488L473.436 799.959C463.817 809.351 460.522 811.5 453.041 813.569C441.017 816.832 419.197 816.753 404.591 813.33C391.32 810.226 382.325 806.008 375.824 799.8C367.719 792.08 361.841 779.823 362.286 771.387C362.553 767.328 359.703 762.951 357.477 763.746C356.141 764.224 333.074 762.393 328.799 761.518C323.989 760.483 320.338 757.857 318.111 753.877C313.302 745.441 312.055 734.776 314.638 722.838C316.152 715.754 317.399 712.969 322.475 706.283C326.305 701.269 326.483 698.961 323.366 697.131L321.139 695.778L308.938 706.363C298.695 715.197 295.311 717.665 288.186 721.166C275.895 727.136 262.803 731.274 252.65 732.388C244.011 733.423 225.931 732.707 212.572 730.797C205.269 729.842 187.723 725.862 181.756 723.872C175.077 721.644 164.656 715.914 159.758 711.855C148.091 702.145 128.764 663.544 126.092 644.761C124.667 634.733 127.161 617.86 130.189 616.746C131.792 616.189 131.97 612.766 130.456 611.652C129.833 611.254 123.331 609.026 116.028 606.797C99.1063 601.624 95.3657 599.714 88.3297 593.108C82.0954 587.139 77.1969 579.021 75.4157 571.699L74.3469 567.321L77.4641 564.376C82.8969 559.203 87.6172 544.479 85.7469 538.033C85.2126 535.963 80.9376 533.974 79.1563 535.008C77.6422 535.804 70.0719 544.877 70.0719 545.832C70.0719 547.663 65.4407 552.279 61.3438 554.348C55.1094 557.611 51.2797 557.373 41.9282 552.916C33.3782 548.936 32.9329 548.936 30.9735 554.109C29.1922 559.044 29.7266 563.183 32.4875 565.491C33.8235 566.605 35.7829 567.958 36.9407 568.435C38.811 569.311 54.9313 570.823 62.5907 570.903C65.2626 570.903 65.3516 571.062 65.886 575.201C66.5985 581.806 72.2094 592.392 78.2657 598.6C86.9938 607.673 103.292 616.189 113.267 617.064C116.206 617.303 118.522 617.781 118.433 618.258C118.344 618.656 117.631 620.487 116.919 622.317C116.028 624.386 115.494 629.56 115.316 637.439C115.048 649.696 114.959 649.218 119.502 661.236C120.125 662.987 123.331 669.752 126.627 676.358C143.816 710.979 152.277 721.962 166.705 728.648C175.967 732.866 188.347 736.209 200.548 737.641C205.981 738.278 212.216 739.233 214.442 739.711C216.669 740.109 228.87 740.586 241.606 740.666C261.378 740.825 265.208 740.666 268.681 739.472C270.908 738.756 274.381 737.721 276.43 737.243C278.478 736.766 283.109 734.697 286.672 732.627C290.234 730.478 295.4 727.534 298.072 725.942L302.97 723.156V735.572C302.97 748.863 303.772 752.047 309.383 762.075C312.5 767.646 320.694 775.207 324.613 776.242C329.333 777.356 340.733 777.197 345.542 775.924L349.639 774.809L350.174 778.55C350.708 781.893 351.955 785.156 354.092 788.18C354.538 788.817 355.695 791.125 356.586 793.194C359.881 800.994 375.378 815.798 382.503 817.946C383.839 818.344 385.888 819.3 387.134 820.016C391.409 822.642 400.494 823.836 423.65 824.712C439.058 825.348 440.839 825.269 450.992 823.518C461.413 821.687 466.934 820.175 473.347 817.23C474.95 816.514 476.464 816.036 476.731 816.196C476.909 816.434 476.731 818.344 476.197 820.493C475.752 822.642 475.128 825.746 474.861 827.338C474.505 829.248 473.881 830.362 473.08 830.362C472.367 830.362 468.003 833.466 463.55 837.366C457.494 842.46 452.684 845.564 445.916 848.986C426.144 858.855 424.808 859.651 423.65 862.277C422.581 864.506 422.581 864.904 424.095 865.859C426.5 867.451 427.48 867.292 433.447 864.586C436.386 863.233 439.414 862.198 440.305 862.198C443.244 862.118 448.944 859.253 458.919 852.806L468.894 846.439L469.606 850.896C469.963 853.443 470.23 856.547 470.052 857.98C469.963 859.412 470.853 863.153 472.1 866.416C479.759 886.234 475.93 904.937 461.591 917.114C459.364 919.024 456.781 921.014 455.891 921.412C455.089 921.81 452.15 923.72 449.389 925.551L444.402 928.973L443.867 924.198C443.422 919.581 440.75 913.453 439.147 913.612C438.702 913.612 436.564 916.875 434.338 920.934C432.111 924.914 429.261 929.291 427.925 930.565C422.581 935.818 407.886 940.672 393.814 941.787C385.709 942.423 383.75 942.264 371.727 940.115C364.424 938.842 357.388 937.25 356.141 936.693C354.805 936.136 350.975 934.862 347.502 933.907C334.855 930.406 329.066 926.744 309.739 910.031C300.031 901.515 290.323 893.635 288.364 892.521C286.405 891.407 284.713 890.213 284.713 889.895C284.713 889.656 286.583 888.781 288.988 887.985C292.995 886.711 303.95 879.867 313.658 872.704C316.063 870.873 320.249 868.485 323.009 867.292C325.681 866.177 329.778 864.028 332.005 862.596L336.102 859.969L339.842 864.267C341.891 866.655 343.939 868.565 344.384 868.565C344.83 868.565 346.522 869.6 348.125 870.793C349.728 872.067 355.25 874.853 360.416 876.922C368.877 880.424 370.48 880.822 377.427 881.14C383.572 881.379 385.264 881.14 386.244 880.105C388.47 877.718 386.066 875.489 377.694 872.146C354.894 863.312 350.441 860.606 343.939 851.851C339.842 846.36 336.992 838.719 333.608 824.95C331.649 817.151 329.333 812.057 327.641 812.057C325.949 812.057 324.524 816.753 324.078 823.438C323.722 829.248 323.989 830.999 325.592 834.262C326.572 836.491 327.463 839.038 327.552 840.072C327.552 841.107 328.086 843.176 328.62 844.688L329.778 847.474L323.544 852.647C320.159 855.512 317.131 857.9 316.775 858.059C315.35 858.537 297.627 848.986 293.975 845.723C287.295 839.993 285.781 836.172 285.069 823.916L284.534 813.251L287.741 808.953C289.522 806.645 290.947 804.496 290.947 804.098C290.947 803.78 293.173 800.517 295.845 796.855C301.634 789.215 302.08 786.191 297.805 784.36C295.4 783.325 294.955 783.485 290.591 786.031C288.097 787.544 284.089 790.25 281.863 792.001C271.888 799.721 252.828 804.337 240.716 802.029C237.688 801.472 234.838 800.994 234.303 800.914C232.344 800.914 232.077 803.541 233.769 805.212C234.659 806.167 236.084 807.918 236.975 809.112C239.558 812.853 243.477 813.808 255.233 813.49C260.933 813.33 266.188 812.932 266.989 812.534C268.147 812.057 268.859 813.41 271.086 820.573C272.6 825.269 274.738 832.352 275.717 836.332C276.786 840.231 278.389 844.211 279.28 845.086C280.081 845.962 282.397 848.747 284.267 851.374C286.227 853.921 289.255 857.025 290.947 858.218C293.886 860.288 301.634 863.869 305.553 864.983C307.156 865.381 307.156 865.541 305.108 867.451C303.95 868.565 299.764 871.43 295.756 873.738C290.234 877.001 286.048 878.673 277.053 881.14C252.205 888.064 240.538 890.054 223.259 890.054C215.867 890.054 211.859 889.576 204.111 887.746C193.245 885.279 178.461 879.867 172.85 876.444C166.616 872.624 160.559 865.939 154.592 856.149C148.18 845.643 144.706 836.889 142.658 825.587C141.856 821.448 141.055 817.071 140.788 815.877L140.253 813.728L153.88 813.41C163.944 813.171 169.288 812.614 173.83 811.42L180.064 809.828L180.598 817.946C180.955 824.473 181.489 826.701 183.359 829.964C186.031 834.581 196.452 843.892 199.034 843.892C200.014 843.892 201.884 844.688 203.22 845.643C205.803 847.474 209.188 848.19 221.122 849.384C228.425 850.18 230.117 849.941 239.736 847.474C246.772 845.643 249.088 844.29 249.088 841.903C249.088 838.64 245.258 837.525 233.769 837.525C214.264 837.446 207.406 835.695 198.767 828.611C193.245 824.075 190.306 818.344 190.306 812.057C190.306 808.316 190.484 807.998 193.602 806.565C195.472 805.69 200.014 802.347 203.666 799.164C207.317 795.9 211.592 792.478 213.195 791.523C218.45 788.18 227.267 779.425 228.781 775.844C230.206 772.66 230.206 772.183 228.959 771.069C225.753 768.283 223.348 769.477 213.017 778.868C206.248 784.997 200.638 789.295 194.938 792.558C190.306 795.184 186.298 797.333 186.031 797.333C185.675 797.413 183.983 798.208 182.291 799.164C176.858 802.267 168.041 803.859 152.009 804.576C133.573 805.531 115.048 801.87 101.244 794.547C89.6657 788.499 81.4719 779.744 68.9141 760.245C60.6313 747.351 58.5829 743.133 55.7329 732.309C52.8829 721.644 52.5266 715.516 54.3969 706.761C55.7329 700.633 59.6516 689.729 60.8985 688.615C61.2547 688.296 63.5704 688.853 65.9751 689.888C73.2782 692.992 78.5329 693.788 93.2282 693.867C106.498 693.867 107.122 693.788 110.328 691.878C112.198 690.764 113.713 689.49 113.713 689.013C113.713 687.819 108.636 687.102 99.9969 687.102C92.4266 687.102 83.1641 685.431 78.0876 683.123C74.2579 681.372 67.6672 675.164 64.5501 670.389C60.3641 663.942 58.4938 651.765 60.9876 647.069C62.2344 644.522 63.8376 637.359 63.8376 633.858C63.8376 630.196 62.2344 628.764 56.1782 627.172C53.6844 626.535 50.3 625.341 48.6079 624.625C44.8672 622.874 34.3579 614.836 28.925 609.503C23.7594 604.41 16.011 593.188 14.7641 588.89C14.2297 587.059 13.161 584.035 12.3594 582.045C11.2907 579.419 11.0235 575.996 11.1125 569.152C11.2907 559.522 11.4688 558.646 15.2985 546.628C18.4157 537.157 19.3063 535.327 26.2532 525.935C29.4594 521.558 32.1313 517.897 32.2204 517.817C32.2204 517.737 35.0704 518.533 38.4547 519.568C58.3157 525.617 62.2344 526.413 70.161 525.855L77.6422 525.378L83.2532 531.029C86.3704 534.133 89.9329 537.714 91.2688 538.988C92.6047 540.181 95.3657 543.365 97.5032 545.912C119.413 572.813 118.967 572.415 128.764 578.145C140.075 584.751 146.844 586.82 160.559 587.855C173.563 588.731 176.947 588.253 176.947 585.229C176.947 582.682 173.295 581.249 158.511 577.986C150.763 576.235 142.034 573.848 139.095 572.574C128.586 568.197 120.125 561.034 112.466 550.21C110.506 547.344 106.855 542.33 104.361 539.067C98.4829 531.347 96.7907 528.004 96.7907 524.104C96.7907 516.941 95.2766 516.384 78.6219 517.658L66.0641 518.613L56.7126 515.191C35.7829 507.63 28.3016 503.332 20.4641 494.736C12.9829 486.539 11.9141 483.753 12.3594 475.078C12.7157 469.029 13.3391 466.641 16.1 460.672C17.9704 456.693 20.1969 451.679 21.0875 449.371C24.2938 441.332 36.7625 427.961 40.5032 428.598C41.3047 428.757 43.4422 430.826 45.2235 433.214C49.5875 439.104 60.2751 448.018 63.7485 448.734C66.4204 449.211 66.5094 449.45 66.5094 453.43C66.5094 457.727 68.0235 462.741 71.0516 467.915C71.9422 469.586 72.7438 471.417 72.7438 471.974C72.7438 472.611 74.2579 474.521 76.1282 476.431C77.9985 478.261 80.2251 480.808 81.2047 482.161C84.3219 486.777 94.386 496.885 95.811 496.885C96.6126 496.965 98.8391 497.601 100.798 498.477C105.163 500.387 106.498 500.387 109.081 498.795C112.377 496.726 111.397 494.895 104.183 489.165C90.9126 478.818 88.5079 476.192 83.6985 467.437C77.4641 455.976 75.861 449.132 77.1969 439.422C78.3547 430.588 83.3422 416.5 87.7954 409.417C91.9813 402.811 98.8391 395.489 104.895 391.112C107.478 389.201 109.794 387.291 109.972 386.973C110.15 386.655 108.102 385.779 105.43 385.063C100.798 383.869 100.442 383.869 97.5032 385.461C92.4266 388.087 77.1969 405.278 77.1969 408.303C77.1969 408.939 76.2172 411.009 74.9704 412.839C73.7235 414.749 71.9422 419.047 70.9626 422.549C69.9829 425.971 68.736 430.03 68.1126 431.622C67.5782 433.134 67.0438 434.885 66.8657 435.443C66.3313 437.193 56.4454 429.553 53.4172 425.096C45.4907 413.476 43.2641 396.603 47.8954 383.551C48.786 380.845 49.5875 378.218 49.5875 377.581C49.5875 375.83 57.0688 364.847 58.2266 364.768C58.761 364.768 60.3641 363.574 61.7891 362.062C63.1251 360.629 65.7079 358.798 67.4001 358.003L70.5172 356.57L74.9704 361.027C83.4313 369.463 90.8235 372.408 93.1391 368.429C94.6532 366.041 93.6735 364.37 89.1313 361.584C87.261 360.47 84.7672 358.321 83.6985 356.809C82.6297 355.297 80.8485 353.068 79.8688 351.795C78.8001 350.601 76.5735 346.303 74.9704 342.164C73.3672 338.105 71.6751 334.046 71.1407 333.25C67.311 326.724 64.1938 303.246 65.0844 287.566C65.886 274.355 68.1126 266.475 74.2579 255.333C81.2047 242.997 84.7672 238.619 93.6735 232.013C96.6126 229.865 102.669 225.089 107.033 221.508C111.486 217.847 116.652 214.265 118.611 213.469L122.173 212.037L125.291 214.743C127.873 216.971 129.744 217.687 136.334 219.041C147.734 221.269 149.248 220.234 144.35 213.469C142.034 210.206 141.322 208.376 141.322 205.51C141.322 201.133 140.075 199.86 134.82 199.302C132.327 198.984 130.813 198.268 130.189 197.154C129.566 196.039 129.566 189.831 130.189 177.256C130.991 161.737 131.436 158.473 132.95 155.449C133.93 153.459 135.711 149.241 136.78 145.978C138.383 141.282 139.63 139.292 143.192 135.95C147.289 132.05 148.091 131.652 156.373 129.662C165.636 127.434 179.084 125.603 181.133 126.32C182.023 126.638 181.845 127.593 180.153 130.936C175.967 139.133 175.166 143.272 175.166 156.086C175.166 165.955 175.433 168.263 176.591 169.297C178.283 170.81 179.708 170.889 181.667 169.536C182.825 168.82 183.181 166.751 183.448 160.224C183.894 150.912 185.675 142.635 188.525 136.905L190.395 133.085L193.067 135.154C196.363 137.542 200.37 137.701 204.2 135.631C207.495 133.88 209.188 129.423 209.544 121.783C209.811 115.893 210.345 115.097 215.689 113.108C217.114 112.551 221.3 110.72 224.952 109.049C228.603 107.457 232.255 106.104 233.056 106.104C235.817 106.104 245.347 102.841 245.881 101.647C246.594 99.9756 245.525 98.0655 243.298 97.3492C240.181 96.3145 228.425 98.3838 223.794 100.851C221.656 101.965 219.073 102.92 218.183 102.92C217.292 102.92 214.798 104.035 212.572 105.308C210.345 106.581 208.208 107.696 207.852 107.696C206.07 107.696 194.136 112.789 192.355 114.302C191.197 115.177 190.217 115.814 190.128 115.575C188.258 112.869 187.634 111.277 187.634 109.128C187.634 107.696 186.566 104.353 185.319 101.727C181.934 94.7227 181.4 85.4109 184.072 79.2825C185.141 76.7357 186.388 74.1092 186.833 73.4725C187.278 72.8358 188.436 70.7665 189.416 68.936C191.642 64.479 198.411 56.4405 207.228 47.5266C216.58 38.2147 223.616 34.3944 235.461 32.4843C242.586 31.2904 245.169 31.2904 254.075 32.0067C259.686 32.4843 265.208 33.4393 266.277 33.9965C267.345 34.6332 269.839 35.5086 271.798 36.0658C273.758 36.6229 277.766 38.0555 280.794 39.3289C283.733 40.5227 287.206 41.7962 288.453 42.0349C289.7 42.3533 291.57 43.6267 292.639 44.9001C293.708 46.1736 295.311 47.2082 296.202 47.2082C298.963 47.2082 298.963 48.0837 296.202 52.6202C294.777 55.0079 293.619 57.7935 293.619 58.7486C293.619 60.7383 292.194 61.0567 276.519 62.0117C271.709 62.3301 267.167 62.9668 266.366 63.4443C265.208 64.2402 265.653 64.7973 269.572 67.0258L274.203 69.7318L283.822 69.1747L293.352 68.6176L293.975 74.8255C294.331 78.2479 295.044 82.6252 295.578 84.615C296.113 86.6047 296.558 93.9269 296.647 100.931L296.736 113.665L301.634 113.426C307.156 113.187 309.116 111.755 308.403 108.492C308.136 107.377 307.513 102.92 306.978 98.543C305.909 89.5495 304.841 82.2273 303.327 73.3929C302.347 67.8217 302.436 66.8667 304.039 62.6484C305.108 60.022 306.355 56.4405 306.889 54.61C307.513 52.6202 309.65 49.5959 312.144 47.049C314.459 44.741 317.488 41.3186 318.824 39.4085C320.159 37.578 321.763 36.0658 322.297 36.0658C322.831 36.0658 324.167 35.3495 325.236 34.474C327.106 32.9618 332.272 30.2558 340.377 26.6743C346.344 24.0479 356.319 21.1827 361.663 20.6255L365.938 20.148L363.8 22.7744C360.772 26.2763 353.291 48.1633 353.291 53.3365C353.291 53.4957 351.777 54.1324 349.906 54.8487C346.077 56.2017 343.138 59.3057 341.356 63.7627C340.466 65.9912 340.377 69.0156 340.911 76.2581L341.713 85.8088L346.789 90.027C349.55 92.3351 353.291 94.5636 354.983 95.0411C358.991 96.0758 378.763 95.5186 384.908 94.1656C387.402 93.6881 390.519 93.131 391.855 93.0514C395.863 92.733 396.308 91.5392 393.369 88.9923L390.697 86.6843L384.641 87.7189C374.131 89.5495 371.905 89.5495 366.65 87.6393C362.286 85.968 361.574 85.3313 358.902 80.7947C354.449 73.1542 354.983 67.4238 360.327 65.9116C362.731 65.2749 363.177 63.7627 363.711 55.565C364.602 42.5921 369.945 29.062 377.961 19.8296C382.325 14.736 390.252 11.0749 400.939 9.00557C409.044 7.41379 413.408 7.41379 421.424 8.92598Z" fill="#F4F4F4"/>
<path d="M298.072 127.513C288.542 130.856 278.122 137.94 274.738 143.352C269.572 151.549 269.572 151.629 268.681 164.681C268.236 171.606 268.058 178.45 268.325 179.883L268.859 182.43L260.577 181.952C254.788 181.713 249.889 180.838 244.545 179.246C240.27 177.973 236.173 176.938 235.372 176.938C233.68 176.938 233.502 179.087 234.927 183.703C236.263 188.001 238.667 190.15 244.545 192.14C248.909 193.572 250.869 193.731 260.22 193.413C266.098 193.254 271.531 192.856 272.244 192.617C273.134 192.219 274.559 193.333 276.697 195.96C280.438 200.656 283.109 202.327 291.838 205.67C297.27 207.659 300.298 208.296 307.602 208.694C312.589 209.012 316.953 209.49 317.22 209.729C317.577 209.968 317.042 211.559 316.063 213.31C313.747 217.528 311.877 229.546 313.123 231.775C314.281 233.605 314.816 233.765 317.844 232.73C319.892 232.014 323.366 226.283 327.641 216.335C330.313 209.968 333.073 205.988 337.705 201.611C342.069 197.552 343.761 192.299 341.356 190.548C340.644 189.991 339.486 189.832 338.863 190.15C336.191 191.662 323.989 200.974 323.722 201.77C323.277 202.805 303.059 196.597 294.509 192.776C279.369 186.091 275.895 172.481 283.911 150.833C286.048 144.943 290.234 140.168 296.469 136.348C298.963 134.836 301.278 133.005 301.634 132.368C301.991 131.732 302.703 130.379 303.327 129.344C304.306 127.593 304.039 125.922 302.703 126.001C302.347 126.081 300.298 126.718 298.072 127.513Z" fill="#F4F4F4"/>
<path d="M404.324 189.672C400.672 191.742 397.644 194.925 392.834 202.009C388.916 207.659 388.47 208.853 388.47 212.833L388.559 217.369L384.463 217.767C367.541 219.598 359.258 222.304 349.906 228.989C339.041 236.709 333.786 242.917 322.386 261.302C311.52 278.891 306.088 285.895 297.181 294.013C289.344 301.176 287.919 302.052 277.499 306.588L266.277 311.523L257.192 309.852C241.784 307.066 230.206 302.529 224.328 296.958C222.369 295.048 219.697 292.501 218.539 291.228C215.956 288.363 214.799 288.84 212.127 294.093C209.544 299.107 210.167 302.052 215.155 307.384C222.992 315.741 235.283 318.845 265.386 319.88C272.066 320.118 277.588 320.596 277.588 320.914C277.588 321.233 277.142 321.869 276.608 322.347C276.074 322.825 275.45 326.565 275.183 330.704C274.738 337.071 275.005 338.981 276.697 343.677C279.814 352.432 284.267 360.152 288.097 363.415L291.57 366.519L287.384 370.259C284.98 372.408 281.952 376.069 280.616 378.378C278.389 382.277 278.211 383.392 278.389 390.236C278.745 404.005 281.061 409.417 289.7 416.341C297.627 422.708 304.93 426.529 313.213 428.678C318.734 430.11 321.941 430.429 332.094 430.349L344.295 430.269L344.652 441.491C344.83 447.62 345.186 453.43 345.364 454.226C345.631 455.579 344.919 455.897 339.842 456.773C332.45 457.966 328.709 459.638 320.338 465.209C311.075 471.417 304.217 478.341 300.12 485.743C299.23 487.255 297.538 489.961 296.202 491.712C292.105 497.204 290.947 500.626 290.947 506.993C290.947 510.256 290.591 512.723 290.234 512.485C289.789 512.246 285.603 511.211 280.883 510.097C273.224 508.266 271.531 508.187 264.05 508.824C248.553 510.097 235.817 513.201 223.17 518.772C219.608 520.284 216.669 521.478 216.58 521.399C216.491 521.239 215.689 519.25 214.888 516.942C211.325 507.391 202.241 498.397 191.731 494.1C180.064 489.404 161.628 487.335 155.572 490.12C152.811 491.394 152.099 492.747 154.058 493.224C154.592 493.383 157.264 494.1 159.936 494.816C162.519 495.532 166.438 496.089 168.486 496.089C173.919 496.089 183.181 498.875 188.258 501.979C193.78 505.401 199.48 511.609 201.439 516.464C204.556 524.025 208.386 531.029 210.434 532.78C213.017 535.008 215.244 534.451 221.033 530.313C230.83 523.309 252.65 515.987 263.783 515.987C266.722 515.987 273.134 516.862 278.033 517.976C282.931 519.091 287.83 519.966 288.899 519.966C291.036 519.966 291.303 521.001 292.283 533.894C292.639 537.794 293.619 542.967 294.599 545.355C295.489 547.822 296.291 550.608 296.291 551.563C296.291 554.189 300.388 561.113 302.436 562.148C304.663 563.183 307.78 563.183 311.342 562.069C313.836 561.273 314.192 560.875 313.658 559.044C313.302 557.93 311.966 555.383 310.541 553.393C305.019 545.673 302.169 535.645 300.922 520.205C300.209 510.654 300.566 508.505 304.574 499.193C308.849 489.324 313.213 483.276 320.961 476.351C329.422 468.87 334.499 466.323 347.324 463.458C354.805 461.866 355.339 461.787 359.525 463.06C366.739 465.209 374.131 471.496 377.249 478.261C378.584 481.286 385.977 487.733 388.738 488.369C390.163 488.688 391.409 488.29 392.567 487.255C393.458 486.459 394.616 485.743 394.972 485.743C395.417 485.743 397.377 484.708 399.336 483.435C404.591 480.012 409.222 478.102 414.655 477.068C425.342 475.078 436.742 479.694 441.908 488.21C444.491 492.508 451.081 498.477 454.199 499.512C457.494 500.546 458.384 499.353 458.384 494.02C458.384 487.733 456.425 483.992 450.191 478.102C446.895 474.919 444.045 473.247 438.345 471.098C431.488 468.472 430.241 468.233 421.869 468.233C412.606 468.233 409.133 468.95 396.308 473.486C393.28 474.521 390.697 475.396 390.43 475.396C390.163 475.396 389.539 473.805 389.005 471.894C387.669 467.039 378.941 459.24 371.281 456.056C366.294 453.987 364.958 453.748 360.059 454.146L354.538 454.624L354.181 448.495C353.38 435.841 353.647 433.135 356.853 426.051C359.436 420.4 360.772 418.57 365.225 414.75C368.253 412.203 370.925 410.133 371.281 410.133C371.549 410.133 373.152 408.701 374.666 406.95C380.188 400.742 375.022 397.877 366.027 402.175C358.634 405.676 354.627 408.78 351.777 413.158C350.441 415.227 348.392 418.092 347.145 419.605L344.83 422.311L335.033 421.833C319.18 420.958 305.731 416.421 298.874 409.497C295.222 405.676 291.927 398.991 291.214 393.738C290.591 389.202 293.084 382.755 297.181 378.298C300.388 374.796 302.525 370.657 302.525 367.872C302.525 367.076 300.477 363.972 297.983 361.027C289.611 351.158 284.713 338.504 287.117 332.853C287.83 331.341 288.008 328.396 287.652 325.292C287.206 321.312 287.384 319.88 288.542 318.765C289.255 318.049 291.214 315.343 292.906 312.876C294.688 310.09 298.428 306.429 302.703 303.166C306.533 300.221 310.274 296.719 311.075 295.287C311.877 293.934 314.459 290.511 316.864 287.805C319.269 285.099 321.406 281.916 321.763 280.642C322.119 279.449 324.969 274.434 328.086 269.58C331.114 264.725 333.697 260.347 333.697 259.949C333.697 259.472 336.102 255.811 339.041 251.831C345.453 243.156 354.003 235.436 361.395 231.934C374.488 225.647 397.377 222.543 417.861 224.214C423.561 224.691 425.342 224.612 426.767 223.657C428.192 222.702 428.281 222.145 427.48 220.553C426.144 217.847 421.156 216.733 410.291 216.733H401.206L401.83 212.992C402.542 208.694 404.591 203.68 406.728 200.815C409.845 196.756 412.161 191.901 411.627 190.548C410.914 188.479 407.263 188.081 404.324 189.672Z" fill="#F4F4F4"/>
<path d="M211.236 192.776C209.9 194.766 207.852 201.292 205.447 210.922C203.042 220.394 202.775 222.94 202.775 235.038C202.775 245.703 203.042 249.046 204.2 251.194C205.536 253.741 205.536 253.9 202.419 258.676C199.925 262.496 189.594 273.479 179.173 283.428C177.659 284.94 169.377 274.594 166.259 267.271C161.094 255.333 160.738 247.533 164.389 232.491C167.061 221.985 169.02 218.643 176.502 212.037C184.25 205.192 184.963 203.202 179.708 203.202C176.591 203.202 175.255 203.919 169.198 208.614C160.381 215.379 155.928 219.757 154.236 223.259C153.434 225.01 152.722 230.422 152.366 237.585L151.742 249.046L142.034 249.205C131.792 249.284 129.031 249.841 110.15 255.811C108.903 256.129 106.855 256.686 105.519 256.925C103.292 257.323 100.353 260.666 100.353 262.735C100.353 263.769 106.498 269.261 107.567 269.261C108.903 269.261 112.02 267.669 114.069 265.918C117.097 263.372 130.278 258.039 133.484 258.039C135.088 258.039 139.897 258.278 144.172 258.596L151.92 259.074L152.455 262.019C152.722 263.61 153.167 265.759 153.345 266.873C153.523 267.988 155.038 271.012 156.819 273.638C158.511 276.265 160.648 279.846 161.628 281.597C162.519 283.348 165.191 286.452 167.506 288.522L171.692 292.342L169.198 295.446C167.863 297.117 163.766 302.052 160.114 306.27C156.463 310.568 152.9 315.502 152.277 317.333C151.564 319.084 150.228 321.631 149.338 322.984C148.447 324.257 146.398 328.873 144.795 333.091C143.192 337.389 141.678 340.891 141.411 340.891C141.144 340.891 139.986 339.458 138.828 337.707C136.245 333.648 129.298 329.032 118.878 324.575C111.486 321.312 110.15 320.994 104.183 320.994C97.325 320.994 85.2125 322.984 85.2125 324.177C85.2125 324.496 87.261 325.928 89.6656 327.361C93.6735 329.669 94.6531 329.908 98.2157 329.43C101.155 329.112 103.738 329.43 107.656 330.624C116.563 333.251 119.591 335.001 127.963 342.244C132.327 345.985 136.691 349.487 137.581 350.123C139.184 351.078 139.184 351.476 138.027 358.162C137.136 363.017 136.869 369.463 137.047 379.094C137.403 391.271 137.67 393.579 139.452 397.399C140.609 399.787 141.856 403.846 142.302 406.472C143.192 411.248 148.18 421.196 151.297 424.141L152.989 425.812L147.378 427.563C141.233 429.473 139.897 430.11 134.108 433.532C123.866 439.581 117.275 446.187 117.275 450.644C117.186 451.838 116.652 453.589 115.939 454.703C114.247 457.409 114.247 462.344 115.939 462.98C116.652 463.219 118.166 463.139 119.323 462.742C122.173 461.786 131.08 451.997 133.573 447.063C135.533 443.322 138.561 441.173 148.981 436.398L158.422 432.02L161.628 435.602C168.486 443.163 183.003 455.817 188.525 459.001C199.034 465.05 212.483 469.825 219.163 469.825C222.458 469.825 224.506 467.994 223.883 465.686C223.348 464.015 221.122 462.821 209.722 458.205C202.33 455.181 193.602 451.042 190.306 449.052C183.003 444.436 170.623 432.577 163.409 423.186C154.592 411.646 151.564 405.119 148.358 391.032C145.597 378.775 145.597 378.616 146.577 367.553C148.892 342.562 157.531 322.904 176.145 300.54C185.408 289.477 197.609 278.095 203.933 274.673C205.803 273.638 208.742 272.047 210.434 271.092C212.127 270.057 214.62 269.022 215.956 268.784C217.292 268.465 219.341 267.669 220.498 267.033C223.081 265.441 222.814 262.337 219.252 254.935C217.916 252.07 215.6 246.897 214.264 243.395C211.77 237.346 211.681 236.55 212.216 228.273C212.572 221.587 213.373 217.847 215.422 212.435C218.628 203.919 218.539 198.666 215.244 194.607C213.017 191.98 212.127 191.582 211.236 192.776Z" fill="#F4F4F4"/>
<path d="M401.384 268.226C399.158 268.943 392.745 272.445 387.134 276.106C381.523 279.846 373.864 284.144 370.213 285.816C363.978 288.522 362.998 288.76 355.963 288.681C351.777 288.601 347.234 288.124 345.809 287.646C344.384 287.169 343.138 286.85 342.959 287.009C342.781 287.169 342.87 290.113 343.227 293.456C343.761 299.266 343.939 299.744 346.433 301.097C349.906 303.007 363.8 304.041 366.739 302.688C368.609 301.733 369.055 301.972 372.172 305.156C379.03 312.239 382.503 320.755 384.552 335.399L385.62 343.04L382.236 352.511C380.277 357.684 378.763 363.494 378.763 365.404C378.673 369.145 379.208 368.906 367.363 371.055C363.711 371.771 361.93 372.567 360.861 374C360.059 375.035 359.703 376.308 359.97 376.626C360.683 377.661 368.075 377.502 374.22 376.308C382.592 374.637 394.972 374.08 400.672 375.035C409.4 376.467 413.764 378.696 433.269 391.589C438.613 395.171 441.463 395.807 443.244 393.818C445.114 391.828 442.709 388.246 435.317 382.198C427.48 375.751 418.573 370.816 412.428 369.463C410.023 368.906 403.344 368.27 397.555 368.031L387.134 367.553L389.806 364.609C394.705 359.356 395.417 355.217 394.883 337.946C394.438 324.894 393.992 321.949 392.389 318.447C391.409 316.139 390.163 313.433 389.717 312.398C389.272 311.364 386.867 307.782 384.463 304.519C380.633 299.346 380.188 298.231 381.167 297.197C381.791 296.48 385.086 293.058 388.559 289.556C391.944 286.054 395.506 282.154 396.308 280.961C397.198 279.767 398.98 278.414 400.227 277.936C404.769 276.424 412.072 272.047 412.072 270.853C411.983 267.431 407.708 266.396 401.384 268.226Z" fill="#F4F4F4"/>
<path d="M342.692 567.321C336.814 573.37 336.102 575.678 336.013 588.81C336.013 602.499 337.348 607.752 341.891 611.095L344.473 613.005L342.158 613.562C337.705 614.517 320.248 612.607 307.869 609.822C293.53 606.479 287.028 603.375 279.458 595.894C274.025 590.641 268.948 586.82 267.256 586.82C265.742 586.82 264.852 591.039 265.475 595.177C266.277 599.555 271.709 605.285 277.677 607.832C279.992 608.867 283.822 611.095 286.227 612.846C293.797 618.417 299.586 620.089 314.638 621.123C321.941 621.68 334.498 622.237 342.603 622.397L357.298 622.715L362.197 620.407C364.869 619.134 369.144 617.462 371.638 616.746L376.18 615.393L387.045 619.85C402.809 626.297 423.116 630.674 426.856 628.366C428.727 627.252 428.905 625.182 427.213 623.829C426.233 623.033 420.088 621.282 413.497 619.85C400.583 617.144 395.328 614.756 393.013 610.856C392.3 609.662 390.163 607.912 388.203 606.877C384.106 604.808 378.941 604.648 365.938 606.24L357.566 607.195L355.428 604.887C352.222 601.544 350.708 598.52 348.927 592.392C347.502 587.537 347.413 586.423 348.481 582.761C349.194 580.453 350.263 578.066 350.975 577.349C351.688 576.633 352.667 574.166 353.113 571.778C353.914 568.038 353.736 567.321 352.311 566.048C349.55 563.581 345.898 564.138 342.692 567.321Z" fill="#F4F4F4"/>
<path d="M203.22 582.205C198.945 586.741 194.759 595.177 194.225 600.59C193.958 603.296 192.533 609.265 191.197 613.881C187.011 627.809 185.586 640.861 187.545 646.91C188.614 650.333 195.205 657.973 199.034 660.361C200.905 661.475 205.358 663.465 209.009 664.818C214.531 666.887 217.47 667.444 226.288 668.001C232.077 668.32 238.311 668.479 240.092 668.24C244.634 667.683 254.788 664.181 257.549 662.271L259.775 660.679L262.892 663.146C267.167 666.489 277.32 670.548 292.728 675.085C311.431 680.656 315.261 681.133 342.603 681.133H366.205L371.549 678.985C374.488 677.87 376.981 676.915 377.07 676.995C377.07 677.074 376.803 681.293 376.447 686.307C375.556 696.733 376.18 700.712 379.742 705.647C385.888 714.242 389.005 715.675 402.809 716.312C412.339 716.789 412.695 716.71 414.12 714.959C414.833 714.004 415.278 712.651 415.011 712.093C414.744 711.457 410.113 708.512 404.591 705.488C388.381 696.414 388.47 696.494 387.134 692.355C386.333 689.809 386.244 687.103 386.689 683.68C387.045 680.974 387.402 677.234 387.491 675.323L387.58 671.981L397.109 667.683C413.586 660.202 420.889 654.312 422.492 647.149C423.116 644.443 421.245 642.533 418.128 642.533C417.238 642.533 411.983 646.194 406.55 650.651C398.089 657.496 395.15 659.326 387.58 662.43C377.338 666.728 361.752 671.424 352.934 672.777C348.927 673.413 343.583 673.572 337.349 673.254C305.731 671.424 284.534 664.34 268.325 650.094L262.091 644.761L259.864 647.149C258.439 648.661 255.589 650.094 252.205 651.128C249.266 652.004 244.1 653.596 240.627 654.71C234.927 656.54 233.769 656.62 227 656.063C214.709 654.949 204.2 649.616 200.103 642.453C195.828 635.051 195.917 627.252 200.549 615.473C202.597 610.299 203.399 607.355 205.892 596.769C206.605 593.665 207.763 589.447 208.475 587.219C209.455 583.796 209.455 583 208.297 581.488C206.605 579.101 206.07 579.18 203.22 582.205Z" fill="#F4F4F4"/>
</svg>
